# xmcd
#
# Track frame offsets: 
#        150
#        13788
#        35630
#        55622
#        65151
#        86637
#        101378
#        123301
#        145992
#        163334
#        183447
#        205734
#        222442
#        244994
#        264143
#        297304
#
# Disc length: 4261 seconds
#
# Revision: 0
# Processed by: cddbd v1.5PL3 Copyright (c) Steve Scherf et al.
# Submitted via: ExactAudioCopy v0.95a3
#
DISCID=f110a310
DTITLE=Still Experienced - Crossroads
DYEAR=2004
DGENRE=Blues
TTITLE0=Crossroads
TTITLE1=Bleeding heart
TTITLE2=Farewall
TTITLE3=Room full of mirrors
TTITLE4=Ground Zero
TTITLE5=Sittin' on top of the world
TTITLE6=Born under a bad sign
TTITLE7=Going down
TTITLE8=It hurts me too
TTITLE9=Summertime
TTITLE10=Come together
TTITLE11=Oh pretty woman
TTITLE12=New door
TTITLE13=In from the storm
TTITLE14=Voodoo chile blues
TTITLE15=Villa nova junction
EXTD=
EXTT0=
EXTT1=
EXTT2=
EXTT3=
EXTT4=
EXTT5=
EXTT6=
EXTT7=
EXTT8=
EXTT9=
EXTT10=
EXTT11=
EXTT12=
EXTT13=
EXTT14=
EXTT15=
PLAYORDER=
